<?xml version="1.0" standalone="no"?>
<!DOCTYPE svg PUBLIC "-//W3C//DTD SVG 20010904//EN"
 "http://www.w3.org/TR/2001/REC-SVG-20010904/DTD/svg10.dtd">
<svg version="1.0" xmlns="http://www.w3.org/2000/svg"
 width="64.000000pt" height="64.000000pt" viewBox="0 0 64.000000 64.000000"
 preserveAspectRatio="xMidYMid meet">

<g transform="translate(0.000000,64.000000) scale(0.100000,-0.100000)"
fill="#000000" stroke="none">
<path d="M265 571 c-106 -27 -189 -119 -197 -217 l-3 -39 255 0 255 0 -3 39
c-6 75 -57 149 -128 188 -53 29 -131 42 -179 29z m181 -47 c54 -33 101 -100
111 -157 l6 -37 -242 0 c-236 0 -241 0 -241 20 0 63 61 149 132 185 74 37 164
33 234 -11z"/>
<path d="M70 270 c0 -6 90 -10 250 -10 160 0 250 4 250 10 0 6 -90 10 -250 10
-160 0 -250 -4 -250 -10z"/>
<path d="M90 220 c0 -6 83 -10 230 -10 147 0 230 4 230 10 0 6 -83 10 -230 10
-147 0 -230 -4 -230 -10z"/>
<path d="M110 170 c0 -6 75 -10 204 -10 126 0 207 4 211 10 4 7 -67 10 -204
10 -134 0 -211 -4 -211 -10z"/>
<path d="M160 120 c0 -6 60 -10 160 -10 100 0 160 4 160 10 0 6 -60 10 -160
10 -100 0 -160 -4 -160 -10z"/>
<path d="M240 70 c0 -6 35 -10 85 -10 50 0 85 4 85 10 0 6 -35 10 -85 10 -50
0 -85 -4 -85 -10z"/>
</g>
</svg>
